# xmcd
#
# Track frame offsets: 
#        150
#        14739
#        30604
#        46042
#        65344
#        87147
#        114058
#        138400
#        155032
#        177242
#        199095
#        219499
#
# Disc length: 3105 seconds
#
# Revision: 2
# Processed by: cddbd v1.5.1PL0 Copyright (c) Steve Scherf et al.
# Submitted via: ExactAudioCopy v0.95a5
#
DISCID=9c0c1f0c
DTITLE=Various Artist - In christ alone
DYEAR=1900
DGENRE=
TTITLE0=Jesus is Lord
TTITLE1=See What A morning
TTITLE2=God of Grace
TTITLE3=My Heart Is Filled With Thankfulness
TTITLE4=With A Prayer
TTITLE5=My Troubled Soul
TTITLE6=Beloved and Blessed
TTITLE7=Your Love
TTITLE8=There Is A Higher Throne
TTITLE9=How Deep The Father's Love
TTITLE10=O My Soul Arise And Bless Your Maker
TTITLE11=What Sacred Fountain
EXTD=
EXTT0=
EXTT1=
EXTT2=
EXTT3=
EXTT4=
EXTT5=
EXTT6=
EXTT7=
EXTT8=
EXTT9=
EXTT10=
EXTT11=
PLAYORDER=
